<svg xmlns="http://www.w3.org/2000/svg" width="230.275" height="223.476" viewBox="0 0 6093 5913" shape-rendering="geometricPrecision" image-rendering="optimizeQuality" fill-rule="nonzero" xmlns:v="https://vecta.io/nano"><path d="M3624 5794v-1L2303 3846c-21-34-32-48-68-50-24-2-36 10-57 30L-1 5914h716c12 0 23-5 31-14l1 1 1157-1043 679 1009c9 26 35 45 65 45 2 0 3-1 5-1l1 1h922l2-1c35-4 63-33 63-71 0-17-7-33-17-46z" fill="#007db7"/><path d="M77 2162l-1 1 1394 2019c20 33 31 47 67 50 24 1 37-10 57-31L6092 1 1833 3127l-714-1039c-11-26-37-44-67-44 0 0-3 1-5 1l-1-1H124v1c-37 4-65 33-65 70 0 18 7 34 18 47z" fill="#53bee3"/></svg>